<svg xmlns="http://www.w3.org/2000/svg" viewBox="0 0 428.18 134.16"><defs><style>.cls-1{font-size:58.1px;}.cls-1,.cls-2,.cls-3{fill:#549e39;}.cls-1,.cls-2{font-family:Helvetica;}.cls-2{font-size:30px;}</style></defs><g id="Layer_2" data-name="Layer 2"><g id="Layer_1-2" data-name="Layer 1"><text class="cls-1" transform="translate(76.22 70.58)">Project Name</text><text class="cls-2" transform="translate(76.22 109.25)">subheading</text><path class="cls-3" d="M26.48,134.16c-3.21-4.78-4.7-9.77-3.14-15.35a38,38,0,0,1,12.5-19.36c2.14-1.79,3.79-.91,5.85-.21,4.37,1.49,7.82.17,9.81-3.49,1.8-3.29,1-6.92-2.08-9.55-4.55-3.87-11.66-1.09-12.62,5.27a12,12,0,0,1-3.91,7.19,36.68,36.68,0,0,0-9,14.3c-.43,1.24-.39,2.86-2.58,3.74a68.65,68.65,0,0,1-1-7.13A86,86,0,0,1,28.66,69.9c1.4-3,3-4.36,6.84-3.83C44.33,67.31,50.09,63.8,53.69,56,56.36,50.25,54.9,43.33,50,38.4,44.62,33.05,35.57,32,29.62,36c-7.2,4.89-9.94,13.37-6.1,20.89a9.4,9.4,0,0,1,0,9.52C21.4,70.73,19.92,75.34,18,80.23c-2.26-2.8-2.09-5.62-1.81-8.54.34-3.39-1.47-5.47-4.66-6s-5.16,1.2-6,4.13,1.32,5.87,5.23,6.41c3,.41,4.15,1.91,4.65,4.56A43.83,43.83,0,0,1,16.27,93c-.79,9.39-.22,18.74,2.89,27.78.27.77.73,1.59.11,2.48-1.47.08-1.75-1.23-2.3-2.1-9.46-15-16-31.22-16.88-49-.76-15.43,3.33-29.81,13-42.3,9.31-12,21.2-20.88,34.32-28.25C52-1,52.35-.62,52.9,4.47c.72,6.57,3.25,12.63,6,18.59,4.44,9.7,8.9,19.4,11.32,29.84,2.71,11.71,3.11,23.33-1.77,34.69-4,9.28-11.58,15.3-19.12,21.36-4.32,3.47-8.84,6.68-13.18,10.12C31.25,122.94,27.05,127.29,26.48,134.16Z"/><path class="cls-3" d="M38.09,38.89C45,38.82,49.38,43,49.4,49.82c0,6.48-4.45,11.27-10.63,11.39A11.18,11.18,0,0,1,27,49.88,10.87,10.87,0,0,1,38.09,38.89Z"/><path class="cls-3" d="M44.43,86.64a5.41,5.41,0,0,1,5.73,5.46c.09,3.09-2.4,6-5.23,6.12a6,6,0,0,1-6-5.86A5.39,5.39,0,0,1,44.43,86.64Z"/></g></g></svg>