<svg xmlns="http://www.w3.org/2000/svg" viewBox="0 0 711.58 255.57"><defs><style>.cls-1{font-size:52.72px;font-family:OpenSans-Light, Open Sans;font-weight:300;}.cls-1,.cls-2{fill:#39b54a;}</style></defs><g id="Layer_2" data-name="Layer 2"><g id="_1" data-name="1"><text class="cls-1" transform="translate(250.18 241.38)">By Miami University</text><path class="cls-2" d="M122.48,52a39.65,39.65,0,0,0-8.77-9.89,40.43,40.43,0,0,0-11.89-6.64,41.07,41.07,0,0,0-13.91-2.38q-13.27,0-22.54,5.14A42.51,42.51,0,0,0,50.34,52,60.57,60.57,0,0,0,42,71.63a98.11,98.11,0,0,0-2.63,22.8A91.14,91.14,0,0,0,42,116.34a59.28,59.28,0,0,0,8.39,19.16,42.93,42.93,0,0,0,15,13.65q9.27,5.15,22.54,5.14,18,0,28.18-11t12.4-29.06h38.07a91,91,0,0,1-7.76,30.31,72.66,72.66,0,0,1-16.53,23,70.3,70.3,0,0,1-24.05,14.53,88.05,88.05,0,0,1-30.31,5Q67.38,187.1,51,180A79.2,79.2,0,0,1,23.29,160.3,87.16,87.16,0,0,1,6,130.87,107.94,107.94,0,0,1,0,94.43a111.71,111.71,0,0,1,6-37.2A89.57,89.57,0,0,1,23.29,27.3,79.24,79.24,0,0,1,51,7.26Q67.36,0,87.91,0a90.06,90.06,0,0,1,27.93,4.26,75.67,75.67,0,0,1,23.55,12.4,67,67,0,0,1,17.15,20.16,72.06,72.06,0,0,1,8.52,27.55H127A32.13,32.13,0,0,0,122.48,52Z"/><path class="cls-2" d="M289.79,4.26a57.54,57.54,0,0,1,21.67,3.88A50,50,0,0,1,328,18.79a46.24,46.24,0,0,1,10.52,15.65,50.23,50.23,0,0,1,3.63,19.16q0,15.78-6.64,27.3T313.84,98.43v.51a30.3,30.3,0,0,1,12,6.13,34,34,0,0,1,7.76,9.77,45.36,45.36,0,0,1,4.39,12.4,108.19,108.19,0,0,1,1.87,13.52q.25,4.26.51,10t.87,11.77a79.08,79.08,0,0,0,2,11.4,26.06,26.06,0,0,0,4.13,9.14H308.08a68.88,68.88,0,0,1-4-20.29q-.75-11.76-2.26-22.54-2-14-8.51-20.54T272,113.21H232.68v69.88H193.36V4.26Zm-14,80.9q13.51,0,20.28-6t6.77-19.54q0-13-6.77-18.91t-20.28-5.88H232.68V85.16Z"/><path class="cls-2" d="M649.71,4.26q16.78,0,28.55,4.88A53.57,53.57,0,0,1,697.43,22a49.6,49.6,0,0,1,10.76,18.29,68.14,68.14,0,0,1,0,42.45,49.36,49.36,0,0,1-10.76,18.41,53.45,53.45,0,0,1-19.17,12.9Q666.48,119,649.71,119H608.38v64.12H569.06V4.26ZM638.94,88.42a82,82,0,0,0,13-1,30.22,30.22,0,0,0,11-3.88,21.12,21.12,0,0,0,7.63-8.14q2.88-5.26,2.89-13.77t-2.89-13.78A21.12,21.12,0,0,0,663,39.7a30.41,30.41,0,0,0-11-3.88,82,82,0,0,0-13-1H608.38v53.6Z"/><path class="cls-2" d="M372.44,57.23A89.57,89.57,0,0,1,389.72,27.3a79.24,79.24,0,0,1,27.68-20Q433.81,0,454.35,0q20.77,0,37.06,7.26A79.51,79.51,0,0,1,519,27.3a89.57,89.57,0,0,1,17.28,29.93,111.71,111.71,0,0,1,6,37.2,107.94,107.94,0,0,1-6,36.44A87.16,87.16,0,0,1,519,160.3,79.47,79.47,0,0,1,491.41,180q-16.28,7.14-37.06,7.14-20.55,0-37-7.14a79.2,79.2,0,0,1-27.68-19.66,87.16,87.16,0,0,1-17.28-29.43,107.94,107.94,0,0,1-6-36.44A111.71,111.71,0,0,1,372.44,57.23Zm35.94,59.11a59.08,59.08,0,0,0,8.4,19.16,42.82,42.82,0,0,0,15,13.65q9.27,5.15,22.55,5.14t22.54-5.14a43.11,43.11,0,0,0,15-13.65,59.49,59.49,0,0,0,8.39-19.16,91.14,91.14,0,0,0,2.63-21.91,98.11,98.11,0,0,0-2.63-22.8A60.78,60.78,0,0,0,491.92,52a42.68,42.68,0,0,0-15-13.77q-9.27-5.13-22.54-5.14T431.8,38.2a42.4,42.4,0,0,0-15,13.77,60.37,60.37,0,0,0-8.4,19.66,98.11,98.11,0,0,0-2.63,22.8A91.14,91.14,0,0,0,408.38,116.34Z"/><path class="cls-2" d="M479.75,85.74a5.36,5.36,0,0,1-1.61,3.14,93.8,93.8,0,0,0-8.23,11c-.21.32-.4.66-.63,1-.12.16-.32.38-.48.37-.31,0-.31-.34-.36-.58-.32-1.51-.64-3-.94-4.53a55.58,55.58,0,0,0-2.64-8.85,4.06,4.06,0,0,1-.18-2.62c1.45-5.29,2.8-10.61,5.66-15.36a15.17,15.17,0,0,1,1.76-2.37c2.8-3,6.19-2.24,7.5,1.66a21.33,21.33,0,0,1,.95,7c0,1.2,0,2.41-.09,3.6C480.27,81.32,480,83.53,479.75,85.74Z"/><path class="cls-2" d="M465.88,113.4a34.45,34.45,0,0,1,5.9-13.71A89.55,89.55,0,0,1,482.61,86.2a11.53,11.53,0,0,1,1.33-1.2,2.72,2.72,0,0,1,4.27.82,14.36,14.36,0,0,1,2.14,5.86c0,.29.16.64-.13.84s-.54-.13-.76-.31l-1.85-1.58a1.41,1.41,0,0,0-2.37.24,36.92,36.92,0,0,0-4,6.43c-2.37,4.71-4,9.75-6.31,14.47a30.57,30.57,0,0,1-3.41,5.57,6.73,6.73,0,0,1-4.82,2.63c-1.46.12-1.69-.11-1.58-1.53A27.32,27.32,0,0,1,465.88,113.4Z"/><path class="cls-2" d="M451.74,91.25c-.2-.66.22-1.23.42-1.79a14.56,14.56,0,0,1,3.61-6c2-1.86,4-1.7,5.7.47a21.72,21.72,0,0,1,3,6.51,77.18,77.18,0,0,1,2.86,12.36,3.21,3.21,0,0,1-.24,2,37.94,37.94,0,0,0-3.32,12.86c0,.43.12,1.08-.42,1.23s-.8-.41-1.1-.75a11.55,11.55,0,0,1-2.71-6.13c-.69-4.35-.27-8.71-.13-13.07a36,36,0,0,0-.25-7.55,8.64,8.64,0,0,0-.88-2.53c-.68-1.32-1.27-1.48-2.56-.67a25.6,25.6,0,0,0-3.05,2.55C452.41,91,452.24,91.33,451.74,91.25Z"/><path class="cls-2" d="M523.16,123s-34-9.23-70.36,8-42.13,25.95-42.13,25.95l6.79,11.64s8.49-12.26,48.25-25.84,58.42-11,58.42-11Z"/><path class="cls-2" d="M468,128.09S434.08,97,387.61,94.1s6.78-1.74,6.78-1.74l.37,15.61s-47.92-8.44,0,0,64.79,26.74,64.79,26.74Z"/></g></g></svg>